<svg width="333" height="274" viewBox="0 0 333 274" fill="none" xmlns="http://www.w3.org/2000/svg">
<path fill-rule="evenodd" clip-rule="evenodd" d="M225.631 211.732C209.035 209.776 197.855 192.381 192.994 178.267C179.622 177.851 168.882 174.043 155.965 176.717C141.861 179.631 132.336 178.65 120.261 174.282C106.861 169.436 83.7101 145.042 74.9886 136.598C65.7888 127.694 61.4495 120.643 72.8071 109.773C79.9498 102.937 86.4753 97.564 94.8141 90.3447C105.09 81.4463 127.116 56.7075 150.176 63.0178C167.753 67.8306 157.151 75.7244 179.12 64.6061C204.093 51.9664 239.17 89.9142 256.881 106.185C287.528 134.335 231.942 146.4 221.756 177.421C216.321 193.974 221.809 199.375 225.631 211.732Z" fill="#F6F6F6"/>
<path fill-rule="evenodd" clip-rule="evenodd" d="M229.034 119.15C217.494 119.514 204.376 117.634 193.291 120.313C182.752 122.853 176.848 129.56 165.539 129.029C155.631 128.565 148.718 122.169 137.819 119.997C128.481 118.136 112.2 120.408 105.349 116.299C111.526 113.443 128.49 106.716 135.116 106.176C151.22 104.865 154.521 113.998 168.543 113.046C181.685 112.156 184.187 103.406 201.941 106.721C209.419 108.113 224.565 115.462 229.029 119.15H229.034Z" fill="#580957"/>
<path d="M120.839 67.6996C133.742 57.3771 152.021 63.3986 159.548 67.6996C177.613 78.0223 169.226 102.108 162.774 112.861C147.29 105.119 136.968 105.334 133.742 106.409C128.58 106.409 112.236 112.861 104.71 116.087C104.71 121.248 127.29 117.591 140.193 120.065C149.871 124.042 157.315 128.99 166 128.99C176.322 144.474 168.15 165.549 162.774 174.151C163.849 174.151 162.129 174.796 146.645 177.377C131.161 179.958 116.537 172.001 111.161 167.699C99.3332 156.947 74.387 134.151 69.2257 128.99C64.0644 123.829 67.0751 116.087 69.2257 112.861C81.0536 102.108 107.935 78.0222 120.839 67.6996Z" fill="#EDEDED"/>
</svg>
