<svg width="49" height="48" viewBox="0 0 49 48" fill="none" xmlns="http://www.w3.org/2000/svg">
<path d="M30.6442 34H40.7404L37.9034 31.19C37.5224 30.8126 37.2202 30.3645 37.0141 29.8714C36.8079 29.3782 36.7019 28.8497 36.7019 28.316V22C36.7022 19.5179 35.9257 17.0967 34.4792 15.0698C33.0328 13.0429 30.9875 11.5099 28.625 10.682V10C28.625 8.93913 28.1995 7.92172 27.4422 7.17157C26.6848 6.42143 25.6576 6 24.5866 6C23.5155 6 22.4883 6.42143 21.7309 7.17157C20.9736 7.92172 20.5481 8.93913 20.5481 10V10.682C15.8433 12.33 12.4712 16.776 12.4712 22V28.318C12.4712 29.394 12.0391 30.428 11.2697 31.19L8.43271 34H18.5289M30.6442 34H18.5289M30.6442 34V36C30.6442 37.5913 30.006 39.1174 28.87 40.2426C27.734 41.3679 26.1932 42 24.5866 42C22.98 42 21.4392 41.3679 20.3031 40.2426C19.1671 39.1174 18.5289 37.5913 18.5289 36V34" stroke="white" stroke-width="2" stroke-linecap="round" stroke-linejoin="round"/>
</svg>
