<?xml version="1.0" encoding="UTF-8" standalone="no"?>
<!-- Created with Inkscape (http://www.inkscape.org/) -->

<svg
   width="52.916595mm"
   height="39.616589mm"
   viewBox="0 0 52.916595 39.616589"
   version="1.1"
   id="svg5"
   xml:space="preserve"
   inkscape:version="1.2.2 (732a01da63, 2022-12-09)"
   xmlns:inkscape="http://www.inkscape.org/namespaces/inkscape"
   xmlns:sodipodi="http://sodipodi.sourceforge.net/DTD/sodipodi-0.dtd"
   xmlns="http://www.w3.org/2000/svg"
   xmlns:svg="http://www.w3.org/2000/svg"><sodipodi:namedview
     id="namedview7"
     pagecolor="#505050"
     bordercolor="#ffffff"
     borderopacity="1"
     inkscape:showpageshadow="0"
     inkscape:pageopacity="0"
     inkscape:pagecheckerboard="1"
     inkscape:deskcolor="#505050"
     inkscape:document-units="mm"
     showgrid="false"
     showborder="true"
     inkscape:zoom="1.3883617"
     inkscape:cx="145.49523"
     inkscape:cy="129.28907"
     inkscape:window-width="1350"
     inkscape:window-height="728"
     inkscape:window-x="0"
     inkscape:window-y="0"
     inkscape:window-maximized="0"
     inkscape:current-layer="layer1" /><defs
     id="defs2" /><g
     inkscape:label="Capa 1"
     inkscape:groupmode="layer"
     id="layer1"
     transform="translate(-23.131538,-9.8378037)"><g
       style="fill:none"
       id="g197"
       transform="matrix(0.26458333,0,0,0.26458333,5.6690375,-6.5663653)"><path
         fill-rule="evenodd"
         clip-rule="evenodd"
         d="m 225.631,211.732 c -16.596,-1.956 -27.776,-19.351 -32.637,-33.465 -13.372,-0.416 -24.112,-4.224 -37.029,-1.55 -14.104,2.914 -23.629,1.933 -35.704,-2.435 -13.4,-4.846 -36.5509,-29.24 -45.2724,-37.684 -9.1998,-8.904 -13.5391,-15.955 -2.1815,-26.825 7.1427,-6.836 13.6682,-12.209 22.007,-19.4283 10.2759,-8.8984 32.3019,-33.6372 55.3619,-27.3269 17.577,4.8128 6.975,12.7066 28.944,1.5883 24.973,-12.6397 60.05,25.3081 77.761,41.5789 30.647,28.15 -24.939,40.215 -35.125,71.236 -5.435,16.553 0.053,21.954 3.875,34.311 z"
         fill="#580957"
         id="path182" /><path
         fill-rule="evenodd"
         clip-rule="evenodd"
         d="m 229.034,119.15 c -11.54,0.364 -24.658,-1.516 -35.743,1.163 -10.539,2.54 -16.443,9.247 -27.752,8.716 -9.908,-0.464 -16.821,-6.86 -27.72,-9.032 -9.338,-1.861 -25.619,0.411 -32.47,-3.698 6.177,-2.856 23.141,-9.583 29.767,-10.123 16.104,-1.311 19.405,7.822 33.427,6.87 13.142,-0.89 15.644,-9.64 33.398,-6.325 7.478,1.392 22.624,8.741 27.088,12.429 z"
         fill="#352f44"
         id="path184" /><path
         d="m 120.839,67.6997 c 12.903,-10.3226 31.182,-4.3011 38.709,0 18.065,10.3227 9.678,34.4083 3.226,45.1613 -15.484,-7.742 -25.806,-7.527 -29.032,-6.452 -5.162,0 -21.506,6.452 -29.032,9.678 0,5.161 22.58,1.504 35.483,3.978 9.678,3.977 17.122,8.925 25.807,8.925 10.322,15.484 2.15,36.559 -3.226,45.161 1.075,0 -0.645,0.645 -16.129,3.226 -15.484,2.581 -30.108,-5.376 -35.484,-9.677 -11.8278,-10.753 -36.774,-33.549 -41.9353,-38.71 -5.1613,-5.161 -2.1506,-12.903 0,-16.129 11.8279,-10.753 38.7093,-34.8387 51.6133,-45.1613 z"
         fill="#940b92"
         id="path186" /></g></g></svg>
