<svg width="49" height="48" viewBox="0 0 49 48" fill="none" xmlns="http://www.w3.org/2000/svg">
<rect width="49" height="48" fill="#F5F5F5"/>
<g id="Principal - Vista Web Publicaciones" clip-path="url(#clip0_1_3)">
<rect width="1920" height="1102" transform="translate(-37 -441)" fill="white"/>
<g id="Barra Lateral Izquierda">
<path id="Rectangle 1" d="M-37 -441H278V661H-37V-441Z" fill="#79236A"/>
<g id="Men&#195;&#186; + Logo">
<g id="Men&#195;&#186;">
<g id="Mensajes">
<g id="chat-alt-2">
<path id="Vector" d="M34.6827 16H38.7211C39.7922 16 40.8194 16.4214 41.5768 17.1716C42.3341 17.9217 42.7596 18.9391 42.7596 20V32C42.7596 33.0609 42.3341 34.0783 41.5768 34.8284C40.8194 35.5786 39.7922 36 38.7211 36H34.6827V44L26.6058 36H18.5288C17.9984 36.0005 17.4732 35.8973 16.9832 35.6962C16.4932 35.495 16.0482 35.2 15.6736 34.828M15.6736 34.828L22.5673 28H30.6442C31.7153 28 32.7425 27.5786 33.4998 26.8284C34.2572 26.0783 34.6827 25.0609 34.6827 24V12C34.6827 10.9391 34.2572 9.92172 33.4998 9.17157C32.7425 8.42143 31.7153 8 30.6442 8H10.4519C9.38085 8 8.35365 8.42143 7.59629 9.17157C6.83893 9.92172 6.41345 10.9391 6.41345 12V24C6.41345 25.0609 6.83893 26.0783 7.59629 26.8284C8.35365 27.5786 9.38085 28 10.4519 28H14.4904V36L15.6736 34.828Z" stroke="white" stroke-width="2" stroke-linecap="round" stroke-linejoin="round"/>
</g>
</g>
</g>
</g>
</g>
</g>
<defs>
<clipPath id="clip0_1_3">
<rect width="1920" height="1102" fill="white" transform="translate(-37 -441)"/>
</clipPath>
</defs>
</svg>
