<svg width="49" height="48" viewBox="0 0 49 48" fill="none" xmlns="http://www.w3.org/2000/svg">
<path d="M27.9687 8.634C27.1085 5.122 22.0645 5.122 21.2043 8.634C20.647 10.904 18.022 11.98 16.0109 10.764C12.8932 8.884 9.3272 12.418 11.2253 15.504C11.5106 15.9675 11.6814 16.4912 11.7238 17.0324C11.7661 17.5737 11.6789 18.1172 11.4691 18.6187C11.2593 19.1202 10.9329 19.5656 10.5165 19.9186C10.1001 20.2716 9.60545 20.5222 9.07278 20.65C5.52701 21.502 5.52701 26.498 9.07278 27.35C9.60498 27.4782 10.0991 27.7289 10.5151 28.0819C10.931 28.4348 11.257 28.88 11.4665 29.3812C11.6761 29.8825 11.7632 30.4256 11.721 30.9665C11.6787 31.5073 11.5082 32.0307 11.2233 32.494C9.32518 35.582 12.8932 39.114 16.0088 37.234C16.4768 36.9514 17.0055 36.7822 17.552 36.7403C18.0984 36.6983 18.6471 36.7847 19.1535 36.9925C19.6598 37.2003 20.1095 37.5236 20.4659 37.936C20.8222 38.3484 21.0753 38.8384 21.2043 39.366C22.0645 42.878 27.1085 42.878 27.9687 39.366C28.0982 38.8389 28.3513 38.3494 28.7077 37.9375C29.064 37.5255 29.5135 37.2026 30.0195 36.9951C30.5256 36.7875 31.0739 36.7012 31.62 36.743C32.166 36.7849 32.6944 36.9538 33.1622 37.236C36.2799 39.116 39.8459 35.582 37.9478 32.496C37.6625 32.0325 37.4917 31.5088 37.4493 30.9676C37.4069 30.4263 37.4942 29.8828 37.704 29.3813C37.9137 28.8798 38.2401 28.4344 38.6565 28.0814C39.0729 27.7284 39.5676 27.4778 40.1003 27.35C43.646 26.498 43.646 21.502 40.1003 20.65C39.5681 20.5218 39.0739 20.2711 38.658 19.9181C38.2421 19.5652 37.9161 19.12 37.7065 18.6188C37.497 18.1175 37.4098 17.5744 37.4521 17.0335C37.4944 16.4927 37.6649 15.9693 37.9498 15.506C39.8479 12.418 36.2799 8.886 33.1642 10.766C32.6963 11.0486 32.1675 11.2178 31.6211 11.2597C31.0747 11.3017 30.5259 11.2153 30.0196 11.0075C29.5132 10.7997 29.0636 10.4764 28.7072 10.064C28.3508 9.65156 28.0978 9.1616 27.9687 8.634Z" stroke="white" stroke-width="2" stroke-linecap="round" stroke-linejoin="round"/>
<path d="M28.87 28.2426C30.006 27.1174 30.6442 25.5913 30.6442 24C30.6442 22.4087 30.006 20.8826 28.87 19.7574C27.7339 18.6321 26.1931 18 24.5865 18C22.9799 18 21.4391 18.6321 20.3031 19.7574C19.1671 20.8826 18.5288 22.4087 18.5288 24C18.5288 25.5913 19.1671 27.1174 20.3031 28.2426C21.4391 29.3679 22.9799 30 24.5865 30C26.1931 30 27.7339 29.3679 28.87 28.2426Z" stroke="white" stroke-width="2" stroke-linecap="round" stroke-linejoin="round"/>
</svg>
