<svg width="49" height="48" viewBox="0 0 49 48" fill="none" xmlns="http://www.w3.org/2000/svg">
<path d="M6.41345 20H42.7596M14.4904 30H16.5096M24.5865 30H26.6058M12.4711 38H36.7019C38.3085 38 39.8493 37.3679 40.9854 36.2426C42.1214 35.1174 42.7596 33.5913 42.7596 32V16C42.7596 14.4087 42.1214 12.8826 40.9854 11.7574C39.8493 10.6321 38.3085 10 36.7019 10H12.4711C10.8645 10 9.32375 10.6321 8.18771 11.7574C7.05167 12.8826 6.41345 14.4087 6.41345 16V32C6.41345 33.5913 7.05167 35.1174 8.18771 36.2426C9.32375 37.3679 10.8645 38 12.4711 38Z" stroke="white" stroke-width="2" stroke-linecap="round" stroke-linejoin="round"/>
</svg>
