<svg width="49" height="48" viewBox="0 0 49 48" fill="none" xmlns="http://www.w3.org/2000/svg">
<path d="M10.4519 38C9.38085 38 8.35365 37.5786 7.59629 36.8284C6.83893 36.0783 6.41345 35.0609 6.41345 34V14C6.41345 12.9391 6.83893 11.9217 7.59629 11.1716C8.35365 10.4214 9.38085 10 10.4519 10H18.5288L22.5673 14H30.6442C31.7153 14 32.7425 14.4214 33.4998 15.1716C34.2572 15.9217 34.6827 16.9391 34.6827 18V20M10.4519 38H38.7211C39.7922 38 40.8194 37.5786 41.5768 36.8284C42.3341 36.0783 42.7596 35.0609 42.7596 34V24C42.7596 22.9391 42.3341 21.9217 41.5768 21.1716C40.8194 20.4214 39.7922 20 38.7211 20H18.5288C17.4578 20 16.4306 20.4214 15.6732 21.1716C14.9159 21.9217 14.4904 22.9391 14.4904 24V34C14.4904 35.0609 14.0649 36.0783 13.3075 36.8284C12.5502 37.5786 11.523 38 10.4519 38Z" stroke="white" stroke-width="2" stroke-linecap="round" stroke-linejoin="round"/>
</svg>
