<svg width="39" height="38" viewBox="0 0 39 38" fill="none" xmlns="http://www.w3.org/2000/svg">
<path d="M1.41345 19L5.45191 15M5.45191 15L19.5865 1L33.7211 15M5.45191 15V35C5.45191 35.5304 5.66465 36.0391 6.04333 36.4142C6.42201 36.7893 6.93561 37 7.47114 37H13.5288M33.7211 15L37.7596 19M33.7211 15V35C33.7211 35.5304 33.5084 36.0391 33.1297 36.4142C32.751 36.7893 32.2374 37 31.7019 37H25.6442M13.5288 37C14.0644 37 14.578 36.7893 14.9566 36.4142C15.3353 36.0391 15.5481 35.5304 15.5481 35V27C15.5481 26.4696 15.7608 25.9609 16.1395 25.5858C16.5182 25.2107 17.0318 25 17.5673 25H21.6058C22.1413 25 22.6549 25.2107 23.0336 25.5858C23.4123 25.9609 23.625 26.4696 23.625 27V35C23.625 35.5304 23.8377 36.0391 24.2164 36.4142C24.5951 36.7893 25.1087 37 25.6442 37M13.5288 37H25.6442" stroke="white" stroke-width="2" stroke-linecap="round" stroke-linejoin="round"/>
</svg>
