<svg width="49" height="48" viewBox="0 0 49 48" fill="none" xmlns="http://www.w3.org/2000/svg">
<path d="M10.6962 35.608C14.9334 33.2358 19.7193 31.9927 24.5865 32C29.6346 32 34.3737 33.31 38.4768 35.608M30.6442 20C30.6442 21.5913 30.006 23.1174 28.87 24.2426C27.7339 25.3679 26.1931 26 24.5865 26C22.9799 26 21.4391 25.3679 20.3031 24.2426C19.1671 23.1174 18.5288 21.5913 18.5288 20C18.5288 18.4087 19.1671 16.8826 20.3031 15.7574C21.4391 14.6321 22.9799 14 24.5865 14C26.1931 14 27.7339 14.6321 28.87 15.7574C30.006 16.8826 30.6442 18.4087 30.6442 20ZM42.7596 24C42.7596 26.3638 42.2895 28.7044 41.3763 30.8883C40.463 33.0722 39.1244 35.0565 37.4368 36.7279C35.7493 38.3994 33.7459 39.7252 31.5411 40.6298C29.3362 41.5344 26.9731 42 24.5865 42C22.2 42 19.8369 41.5344 17.632 40.6298C15.4271 39.7252 13.4237 38.3994 11.7362 36.7279C10.0487 35.0565 8.71008 33.0722 7.7968 30.8883C6.88351 28.7044 6.41345 26.3638 6.41345 24C6.41345 19.2261 8.32811 14.6477 11.7362 11.2721C15.1443 7.89642 19.7667 6 24.5865 6C29.4063 6 34.0287 7.89642 37.4368 11.2721C40.8449 14.6477 42.7596 19.2261 42.7596 24Z" stroke="white" stroke-width="2" stroke-linecap="round" stroke-linejoin="round"/>
</svg>
